<svg width="60" height="56" viewBox="0 0 60 56" fill="none" xmlns="http://www.w3.org/2000/svg">
<g clip-path="url(#clip0_5487_419)">
<path fill-rule="evenodd" clip-rule="evenodd" d="M2.63811 40.097C0.798113 42.837 -0.377887 44.292 0.111112 47.977C0.463113 50.623 1.88611 53.117 4.11611 54.582C6.55811 56.188 9.69611 56.466 12.3201 55.114C15.1501 53.654 15.9261 51.999 17.0461 49.184L42.9901 49.188C44.1371 52.055 44.8971 53.671 47.7871 55.15C53.0581 57.847 59.5941 53.819 59.9801 47.406C60.0761 45.814 59.8281 44.246 59.1741 42.791C58.4121 41.094 57.7821 40.865 56.9111 39.591C58.0981 37.018 58.5071 34.881 57.2431 32.179C55.0431 27.475 48.9501 26.499 45.5831 30.723C44.8291 31.668 44.8651 33.005 44.3821 34.127C43.9181 35.206 43.3721 36.022 42.7171 36.976C47.9101 37.804 44.5231 34.615 47.6181 31.596C49.8271 29.443 52.9001 29.841 54.8251 32.146C57.7991 35.708 54.4271 38.727 54.4571 39.906C54.4811 40.876 58.0711 42.352 57.9871 46.894C57.8701 53.182 50.3741 56.373 46.3861 51.407C42.2541 46.262 50.6361 46.999 29.9121 46.999H19.5991C18.4861 46.999 15.6031 46.528 15.2151 47.838C14.7301 49.474 14.7551 50.048 13.6031 51.466C9.57311 56.429 1.99311 53.061 2.04911 46.676C2.06111 45.288 2.45911 43.862 3.23211 42.709C3.93511 41.661 5.59711 40.7 4.91911 39.609C4.04211 38.199 3.42611 37.999 3.27811 36.027C2.90211 31.018 8.41611 28.389 11.7251 31.652C14.6121 34.499 11.2621 37.887 16.7861 36.974C16.1261 36.036 15.4561 35.117 15.0921 34.051C14.6441 32.741 14.5101 31.794 13.6321 30.693C12.0171 28.669 9.37711 27.631 6.83011 28.205C1.48711 29.41 -0.129887 35.565 2.63811 40.097Z" fill="#ffe44d"/>
<path fill-rule="evenodd" clip-rule="evenodd" d="M31.113 20.778C34.068 20.068 35.444 23.717 32.481 24.472C29.456 25.242 27.906 21.547 31.113 20.778ZM29.677 36.348L29.734 36.301C30.089 36.419 30.808 38.751 33.363 39.441C36.697 40.342 40.553 38.516 42.563 35.4C43.139 34.506 44.937 31.306 43.411 30.673C42.076 30.12 41.548 33.228 40.704 34.493C39.798 35.85 38.226 36.902 36.653 37.272C31.293 38.534 30.72 33.902 30.769 29.812C33.442 29.011 36.335 25.559 36.159 22.643C35.941 19.033 30.911 17.921 28.045 18.486C24.267 19.232 22.132 21.8 24.075 25.623C26.265 29.927 28.643 29.085 28.751 30.337C29.141 34.837 26.509 39.834 20.948 36.509C19.609 35.708 18.694 34.529 18.027 33.129C17.779 32.609 17.394 31.112 17.175 30.877C16.546 30.206 15.428 30.719 15.464 31.739C15.559 34.432 18.514 37.881 20.939 38.882C24.279 40.262 28.004 39.932 29.677 36.349V36.348ZM36.023 15.816C35.254 14.029 34.51 12.251 35.704 10.332C36.804 8.56496 38.911 8.50196 40.469 9.71496C43.731 12.252 43.727 18.559 39.609 18.284C41.866 17.55 42.545 15.17 41.483 13.086L39.05 14.93L39.859 11.797C36.992 11.085 35.956 13.387 36.023 15.815V15.816ZM37.293 6.82296C29.823 8.34296 33.311 21.692 40.657 20.389C48.097 19.069 44.684 5.31896 37.293 6.82296ZM21.235 14.669L18.889 12.843C18.2 13.566 18.141 14.941 18.429 15.864C18.772 16.963 19.209 17.258 20.059 17.857C15.911 17.514 16.515 12.166 18.912 9.69696C20.142 8.43096 22.122 7.93696 23.58 9.15996C25.147 10.472 24.767 12.682 24.367 14.385C23.712 13.295 23.876 11.925 21.893 11.51C19.686 11.049 20.673 11.948 21.235 14.669ZM20.88 6.36996C13.12 7.65396 13.153 21.22 20.905 19.96C28.637 18.702 28.602 5.09296 20.88 6.36996ZM34.938 0.0459611C33.824 0.225961 33.666 1.53896 34.381 2.01496C35.106 2.49696 36.939 1.47996 38.868 4.35096C39.342 5.05696 39.542 6.17096 40.513 6.04996C43.176 5.71796 38.947 -0.600039 34.938 0.0459611ZM22.32 0.0699611C20.606 0.316961 19.2 1.38196 18.208 2.75996C15.788 6.12896 18.213 6.61996 18.899 5.60196C19.836 4.21196 20.33 2.67696 22.283 2.24696C23.093 2.06896 24.565 2.49296 24.493 1.05696C24.433 -0.125039 23.176 -0.0530389 22.319 0.0709611L22.32 0.0699611Z" fill="#ffe44d"/>
</g>
</svg>
